# xmcd
#
# Track frame offsets:
# 150
# 14787
# 27154
# 39493
# 51687
# 64203
# 78191
# 89997
# 104639
# 119261
# 132323
# 145391
# 159410
# 171543
# 184668
# 196516
# 210251
# 224810
#
# Disc length: 3185 seconds
#
#
# Revision: 0
# Processed by: cddbd v1.5.2PL0 Copyright (c) Steve Scherf et al.
# Submitted via: FreeRIP 2.945 
#
DISCID=160c6f12
DTITLE=Ella Fitzgerald - The Collection
DYEAR=2006
DGENRE=Blues
TTITLE0=Oh! Lady Be Good
TTITLE1=When My Sugar Walks Down The Street
TTITLE2=I'm Beginning To See The Light
TTITLE3=It's Only A Paper Moon
TTITLE4=Can't Help Lovin' Dat Man
TTITLE5=Dream A Little Dream Of Mr
TTITLE6=Petootie Pie
TTITLE7=How High The Moon
TTITLE8=I've Got The World On A String
TTITLE9=You Wont Be Satisfied
TTITLE10=I Got It Bad(And That Ain't Good)
TTITLE11=Basin Street Blues
TTITLE12=Baby It's Cold Outside
TTITLE13=I'm Gonna WashThat Man Right Outa My Hair
TTITLE14=A-Tisket, A-Tasket
TTITLE15=T'ain't What You Do(It's The Way That Cha DoIt)
TTITLE16=Someone To Watch Over Me
TTITLE17=A Kiss Goodnight
EXTD=
EXTT0=
EXTT1=
EXTT2=
EXTT3=
EXTT4=
EXTT5=
EXTT6=
EXTT7=
EXTT8=
EXTT9=
EXTT10=
EXTT11=
EXTT12=
EXTT13=
EXTT14=
EXTT15=
EXTT16=
EXTT17=
PLAYORDER=
